[imgw=http://img822.imageshack.us/img822/149/lcto4ss.jpg]

Genre:Action | Adventure | Fantasy  
Language:English
IMDb:http://www.imdb.com/title/tt1734582/
Source:1080p BluRay x264-Japhson Thanks!
Encoder:Tony
 
Format                                   : AVI
Format/Info                              : Audio Video Interleave
File size                                : 1.19 GiB
Duration                                 : 1h 41mn
Overall bit rate                         : 1 670 Kbps

Video
ID                                       : 0
Format                                   : MPEG-4 Visual
Format profile                           : Advanced Simple@L5
Format settings, BVOP                    : 1
Format settings, QPel                    : No
Format settings, GMC                     : No warppoints
Format settings, Matrix                  : Default (H.263)
Codec ID                                 : XVID
Codec ID/Hint                            : XviD
Duration                                 : 1h 41mn
Bit rate                                 : 1 213 Kbps
Width                                    : 640 pixels
Height                                   : 360 pixels
Display aspect ratio                     : 16:9
Frame rate                               : 23.976 fps
Color space                              : YUV
Chroma subsampling                       : 4:2:0
Bit depth                                : 8 bits
Scan type                                : Progressive
Compression mode                         : Lossy
Bits/(Pixel*Frame)                       : 0.220
Stream size                              : 883 MiB (73%)
Writing library                          : XviD 1.2.1 (UTC 2008-12-04)

Audio
ID                                       : 1
Format                                   : AC-3
Format/Info                              : Audio Coding 3
Mode extension                           : CM (complete main)
Codec ID                                 : 2000
Duration                                 : 1h 41mn
Bit rate mode                            : Constant
Bit rate                                 : 448 Kbps
Channel(s)                               : 6 channels
Channel positions                        : Front: L C R, Side: L R, LFE
Sampling rate                            : 48.0 KHz
Bit depth                                : 16 bits
Compression mode                         : Lossy
Stream size                              : 326 MiB (27%)
Alignment                                : Aligned on interleaves
Interleave, duration                     : 42 ms (1.00 video frame)
Interleave, preload duration             : 512 ms

[imgw=http://img196.imageshack.us/img196/9417/vlcsnap2012012806h46m02.png]
[imgw=http://img10.imageshack.us/img10/1062/vlcsnap2012012806h46m05.png]
[imgw=http://img641.imageshack.us/img641/5487/vlcsnap2012012806h46m29.png]
[imgw=http://img831.imageshack.us/img831/5603/vlcsnap2012012806h46m36.png]

Greets:

CRYS,IMAGINE,LKRG,FXG,3Li,FLAWL3SS,TA,iLLUSiON,EMBER,ETRG,BHRG,iLLUMiNATi,MiSTERE.ViSiON,DTRG SAFCuk009,LU,TheFalcon007,MYSTiC,PrisM,Noir,WBZ,LAP,Rx,Kingdom,SAFCuk009+Fabreezy,HDLiTE,TWiZTED,ExtraTorrentRG.ELEKTRI4KA,MAGNAT,CM8
               And to all the other p2p grps past and present 